<?xml version="1.0" encoding="utf-8"?>
<!-- Generator: Adobe Illustrator 19.0.0, SVG Export Plug-In . SVG Version: 6.00 Build 0)  -->
<svg version="1.1" id="Layer_1" xmlns="http://www.w3.org/2000/svg" xmlns:xlink="http://www.w3.org/1999/xlink" x="0px" y="0px"
	 viewBox="0 0 368 368" style="enable-background:new 0 0 368 368;" xml:space="preserve">
<style type="text/css">
	.st0{fill:#1782BF;}
	.st1{fill:none;stroke:#1782BF;stroke-miterlimit:10;}
</style>
<g>
	<g>
		<path class="st0" d="M32.4,49.3c-2.2,0-4.3,0-6.5,0c-0.8,0-1.5,0-2.3,0c0.8,0,1.5,0,2.3,0C28.1,49.3,30.2,49.2,32.4,49.3z"/>
		<path class="st0" d="M25.9,19.4C11.8,19.4,0.1,30.6,0,45.3c-0.1,14,11.1,25.8,25.8,25.9c14,0.1,25.5-11.2,25.9-24.9
			C52.4,32,41,19.4,25.9,19.4z M37.9,58c0,1.7-1.2,2.9-3,2.9c-6.1,0-12.1,0-18.2,0c-1.5,0-2.8-1.2-2.8-2.8c0-2.7,0-5.4,0-8.1
			c0-1.5,0-3,0-4.5c0,0,0,0,0,0c0-1.8,0-3.6,0-5.4c0-1.6,0-3.3,0-4.9c0-1,0-2.1,0-3.1c0.1-1.3,1.4-2.5,2.6-2.5c4.3,0,8.6,0,12.8,0
			c0.4,0,0.9,0.2,1.3,0.5c2.2,2.1,4.4,4.3,6.6,6.5c0.4,0.4,0.6,0.9,0.6,1.4C37.9,44.8,37.9,51.4,37.9,58z"/>
		<path class="st0" d="M35.2,38.8c-1.1,0-2.2,0-3.3,0c-2.1,0-3.3-1.3-3.3-3.3c0-1.1,0-2.1,0-3.2c0-0.5-0.2-0.6-0.6-0.6
			c-3.6,0-7.3,0-10.9,0c-0.9,0-1.2,0.3-1.2,1.2c0,4.1,0,8.3,0,12.4c0,0,0,0,0,0c0,4.2,0,8.3,0,12.5c0,0.9,0.3,1.2,1.1,1.2
			c5.9,0,11.8,0,17.7,0c0.8,0,1.1-0.3,1.1-1.1c0-6.1,0-12.3,0-18.4C35.8,38.9,35.7,38.8,35.2,38.8z M18.5,36.8
			c0.1-0.3,0.3-0.5,0.5-0.7c0.1-0.1,0.3-0.1,0.5-0.1c1.8,0,3.6,0,5.4,0c0.1,0,0.3,0,0.4,0c0.4,0.1,0.7,0.3,0.6,0.8
			c0,0.4-0.3,0.7-0.7,0.7c-1,0-2,0-3,0c0,0,0,0,0,0c-0.8,0-1.7,0-2.5,0c-0.2,0-0.5,0-0.7-0.1C18.7,37.4,18.5,37.2,18.5,36.8z
			 M18.5,41.1c0-0.4,0.3-0.6,0.7-0.6c1.2,0,2.5,0,3.7,0c1,0,2,0,3,0c0,0,0,0,0,0c1.8,0,3.7,0,5.5,0c0.3,0,0.6,0,0.9,0
			c0.7,0,1,0.3,1,0.8c0,0.5-0.3,0.7-1,0.7c-1.2,0-2.4,0-3.6,0c-3,0-6,0-8.9,0c-0.2,0-0.4,0-0.7-0.1C18.7,41.8,18.5,41.5,18.5,41.1z
			 M19.5,44.9c2.2,0,4.3,0,6.5,0c2.1,0,4.3,0,6.4,0c0.6,0,0.9,0.2,0.9,0.7c0,0.5-0.3,0.8-0.9,0.8c-4.3,0-8.6,0-12.9,0
			c-0.6,0-0.9-0.3-0.9-0.8C18.5,45.1,18.8,44.9,19.5,44.9z M32.7,55.1c-0.2,0-0.3,0-0.5,0c-2.1,0-4.2,0-6.3,0c-2.1,0-4.1,0-6.2,0
			c-0.2,0-0.4,0-0.6,0c-0.4-0.1-0.7-0.4-0.6-0.8c0-0.4,0.3-0.6,0.7-0.7c0.5,0,0.9,0,1.4,0c3.8,0,7.7,0,11.5,0c0.2,0,0.3,0,0.5,0
			c0.4,0.1,0.7,0.3,0.7,0.7C33.3,54.8,33,55,32.7,55.1z M33.3,50.1c-0.1,0.5-0.5,0.6-0.9,0.6c-1.4,0-2.7,0-4.1,0c-2.7,0-5.5,0-8.2,0
			c-0.2,0-0.5,0-0.7,0c-0.5-0.1-0.8-0.4-0.8-0.8c0-0.4,0.3-0.7,0.8-0.7c1.4,0,2.9,0,4.3,0c0.8,0,1.5,0,2.3,0c2.2,0,4.3,0,6.5,0
			C33,49.3,33.4,49.6,33.3,50.1z"/>
	</g>
	<g>
		<path class="st0" d="M121.8,79.1c-2.2,0-4.3,0-6.5,0c-0.8,0-1.5,0-2.3,0c0.8,0,1.5,0,2.3,0C117.5,79.1,119.6,79.1,121.8,79.1z"/>
		<path class="st0" d="M115.3,49.3c-14.1,0-25.9,11.2-25.9,25.9c-0.1,14,11.1,25.8,25.8,25.9c14,0.1,25.5-11.2,25.9-24.9
			C141.8,61.9,130.4,49.3,115.3,49.3z M127.3,87.9c0,1.7-1.2,2.9-3,2.9c-6.1,0-12.1,0-18.2,0c-1.5,0-2.8-1.2-2.8-2.8
			c0-2.7,0-5.4,0-8.1c0-1.5,0-3,0-4.5c0,0,0,0,0,0c0-1.8,0-3.6,0-5.4c0-1.6,0-3.3,0-4.9c0-1,0-2.1,0-3.1c0.1-1.3,1.4-2.5,2.6-2.5
			c4.3,0,8.6,0,12.8,0c0.4,0,0.9,0.2,1.3,0.5c2.2,2.1,4.4,4.3,6.6,6.5c0.4,0.4,0.6,0.9,0.6,1.4C127.3,74.6,127.3,81.2,127.3,87.9z"
			/>
		<path class="st0" d="M124.6,68.6c-1.1,0-2.2,0-3.3,0c-2.1,0-3.3-1.3-3.3-3.3c0-1.1,0-2.1,0-3.2c0-0.5-0.2-0.6-0.6-0.6
			c-3.6,0-7.3,0-10.9,0c-0.9,0-1.2,0.3-1.2,1.2c0,4.1,0,8.3,0,12.4c0,0,0,0,0,0c0,4.2,0,8.3,0,12.5c0,0.9,0.3,1.2,1.1,1.2
			c5.9,0,11.8,0,17.7,0c0.8,0,1.1-0.3,1.1-1.1c0-6.1,0-12.3,0-18.4C125.3,68.7,125.1,68.6,124.6,68.6z M108,66.6
			c0.1-0.3,0.3-0.5,0.5-0.7c0.1-0.1,0.3-0.1,0.5-0.1c1.8,0,3.6,0,5.4,0c0.1,0,0.3,0,0.4,0c0.4,0.1,0.7,0.3,0.6,0.8
			c0,0.4-0.3,0.7-0.7,0.7c-1,0-2,0-3,0c0,0,0,0,0,0c-0.8,0-1.7,0-2.5,0c-0.2,0-0.5,0-0.7-0.1C108.1,67.3,107.9,67,108,66.6z M108,71
			c0-0.4,0.3-0.6,0.7-0.6c1.2,0,2.5,0,3.7,0c1,0,2,0,3,0c0,0,0,0,0,0c1.8,0,3.7,0,5.5,0c0.3,0,0.6,0,0.9,0c0.7,0,1,0.3,1,0.8
			c0,0.5-0.3,0.7-1,0.7c-1.2,0-2.4,0-3.6,0c-3,0-6,0-8.9,0c-0.2,0-0.4,0-0.7-0.1C108.1,71.6,107.9,71.4,108,71z M108.9,74.7
			c2.2,0,4.3,0,6.5,0c2.1,0,4.3,0,6.4,0c0.6,0,0.9,0.2,0.9,0.7c0,0.5-0.3,0.8-0.9,0.8c-4.3,0-8.6,0-12.9,0c-0.6,0-0.9-0.3-0.9-0.8
			C107.9,74.9,108.2,74.7,108.9,74.7z M122.1,84.9c-0.2,0-0.3,0-0.5,0c-2.1,0-4.2,0-6.3,0c-2.1,0-4.1,0-6.2,0c-0.2,0-0.4,0-0.6,0
			c-0.4-0.1-0.7-0.4-0.6-0.8c0-0.4,0.3-0.6,0.7-0.7c0.5,0,0.9,0,1.4,0c3.8,0,7.7,0,11.5,0c0.2,0,0.3,0,0.5,0
			c0.4,0.1,0.7,0.3,0.7,0.7C122.7,84.6,122.5,84.8,122.1,84.9z M122.7,80c-0.1,0.5-0.5,0.6-0.9,0.6c-1.4,0-2.7,0-4.1,0
			c-2.7,0-5.5,0-8.2,0c-0.2,0-0.5,0-0.7,0c-0.5-0.1-0.8-0.4-0.8-0.8c0-0.4,0.3-0.7,0.8-0.7c1.4,0,2.9,0,4.3,0c0.8,0,1.5,0,2.3,0
			c2.2,0,4.3,0,6.5,0C122.4,79.1,122.8,79.5,122.7,80z"/>
	</g>
	<g>
		<path class="st0" d="M164.1,166.5c-2.2,0-4.3,0-6.5,0c-0.8,0-1.5,0-2.3,0c0.8,0,1.5,0,2.3,0C159.8,166.5,162,166.5,164.1,166.5z"
			/>
		<path class="st0" d="M157.6,136.6c-14.1,0-25.9,11.2-25.9,25.9c-0.1,14,11.1,25.8,25.8,25.9c14,0.1,25.5-11.2,25.9-24.9
			C184.1,149.3,172.7,136.7,157.6,136.6z M169.6,175.2c0,1.7-1.2,2.9-3,2.9c-6.1,0-12.1,0-18.2,0c-1.5,0-2.8-1.2-2.8-2.8
			c0-2.7,0-5.4,0-8.1c0-1.5,0-3,0-4.5c0,0,0,0,0,0c0-1.8,0-3.6,0-5.4c0-1.6,0-3.3,0-4.9c0-1,0-2.1,0-3.1c0.1-1.3,1.4-2.5,2.6-2.5
			c4.3,0,8.6,0,12.8,0c0.4,0,0.9,0.2,1.3,0.5c2.2,2.1,4.4,4.3,6.6,6.5c0.4,0.4,0.6,0.9,0.6,1.4C169.6,162,169.6,168.6,169.6,175.2z"
			/>
		<path class="st0" d="M166.9,156c-1.1,0-2.2,0-3.3,0c-2.1,0-3.3-1.3-3.3-3.3c0-1.1,0-2.1,0-3.2c0-0.5-0.2-0.6-0.6-0.6
			c-3.6,0-7.3,0-10.9,0c-0.9,0-1.2,0.3-1.2,1.2c0,4.1,0,8.3,0,12.4c0,0,0,0,0,0c0,4.2,0,8.3,0,12.5c0,0.9,0.3,1.2,1.1,1.2
			c5.9,0,11.8,0,17.7,0c0.8,0,1.1-0.3,1.1-1.1c0-6.1,0-12.3,0-18.4C167.6,156.1,167.4,156,166.9,156z M150.3,154
			c0.1-0.3,0.3-0.5,0.5-0.7c0.1-0.1,0.3-0.1,0.5-0.1c1.8,0,3.6,0,5.4,0c0.1,0,0.3,0,0.4,0c0.4,0.1,0.7,0.3,0.6,0.8
			c0,0.4-0.3,0.7-0.7,0.7c-1,0-2,0-3,0c0,0,0,0,0,0c-0.8,0-1.7,0-2.5,0c-0.2,0-0.5,0-0.7-0.1C150.4,154.6,150.2,154.4,150.3,154z
			 M150.3,158.3c0-0.4,0.3-0.6,0.7-0.6c1.2,0,2.5,0,3.7,0c1,0,2,0,3,0c0,0,0,0,0,0c1.8,0,3.7,0,5.5,0c0.3,0,0.6,0,0.9,0
			c0.7,0,1,0.3,1,0.8c0,0.5-0.3,0.7-1,0.7c-1.2,0-2.4,0-3.6,0c-3,0-6,0-8.9,0c-0.2,0-0.4,0-0.7-0.1
			C150.4,159,150.2,158.7,150.3,158.3z M151.2,162.1c2.2,0,4.3,0,6.5,0c2.1,0,4.3,0,6.4,0c0.6,0,0.9,0.2,0.9,0.7
			c0,0.5-0.3,0.8-0.9,0.8c-4.3,0-8.6,0-12.9,0c-0.6,0-0.9-0.3-0.9-0.8C150.3,162.3,150.6,162.1,151.2,162.1z M164.4,172.3
			c-0.2,0-0.3,0-0.5,0c-2.1,0-4.2,0-6.3,0c-2.1,0-4.1,0-6.2,0c-0.2,0-0.4,0-0.6,0c-0.4-0.1-0.7-0.4-0.6-0.8c0-0.4,0.3-0.6,0.7-0.7
			c0.5,0,0.9,0,1.4,0c3.8,0,7.7,0,11.5,0c0.2,0,0.3,0,0.5,0c0.4,0.1,0.7,0.3,0.7,0.7C165,172,164.8,172.2,164.4,172.3z M165,167.4
			c-0.1,0.5-0.5,0.6-0.9,0.6c-1.4,0-2.7,0-4.1,0c-2.7,0-5.5,0-8.2,0c-0.2,0-0.5,0-0.7,0c-0.5-0.1-0.8-0.4-0.8-0.8
			c0-0.4,0.3-0.7,0.8-0.7c1.4,0,2.9,0,4.3,0c0.8,0,1.5,0,2.3,0c2.2,0,4.3,0,6.5,0C164.7,166.5,165.1,166.9,165,167.4z"/>
	</g>
	<g>
		<path class="st0" d="M60.4,217.9c-2.2,0-4.3,0-6.5,0c-0.8,0-1.5,0-2.3,0c0.8,0,1.5,0,2.3,0C56.1,217.9,58.2,217.9,60.4,217.9z"/>
		<path class="st0" d="M53.9,188.1c-14.1,0-25.9,11.2-25.9,25.9c-0.1,14,11.1,25.8,25.8,25.9c14,0.1,25.5-11.2,25.9-24.9
			C80.4,200.7,69,188.1,53.9,188.1z M65.9,226.7c0,1.7-1.2,2.9-3,2.9c-6.1,0-12.1,0-18.2,0c-1.5,0-2.8-1.2-2.8-2.8
			c0-2.7,0-5.4,0-8.1c0-1.5,0-3,0-4.5c0,0,0,0,0,0c0-1.8,0-3.6,0-5.4c0-1.6,0-3.3,0-4.9c0-1,0-2.1,0-3.1c0.1-1.3,1.4-2.5,2.6-2.5
			c4.3,0,8.6,0,12.8,0c0.4,0,0.9,0.2,1.3,0.5c2.2,2.1,4.4,4.3,6.6,6.5c0.4,0.4,0.6,0.9,0.6,1.4C65.9,213.5,65.9,220.1,65.9,226.7z"
			/>
		<path class="st0" d="M63.2,207.5c-1.1,0-2.2,0-3.3,0c-2.1,0-3.3-1.3-3.3-3.3c0-1.1,0-2.1,0-3.2c0-0.5-0.2-0.6-0.6-0.6
			c-3.6,0-7.3,0-10.9,0c-0.9,0-1.2,0.3-1.2,1.2c0,4.1,0,8.3,0,12.4c0,0,0,0,0,0c0,4.2,0,8.3,0,12.5c0,0.9,0.3,1.2,1.1,1.2
			c5.9,0,11.8,0,17.7,0c0.8,0,1.1-0.3,1.1-1.1c0-6.1,0-12.3,0-18.4C63.8,207.6,63.7,207.5,63.2,207.5z M46.5,205.5
			c0.1-0.3,0.3-0.5,0.5-0.7c0.1-0.1,0.3-0.1,0.5-0.1c1.8,0,3.6,0,5.4,0c0.1,0,0.3,0,0.4,0c0.4,0.1,0.7,0.3,0.6,0.8
			c0,0.4-0.3,0.7-0.7,0.7c-1,0-2,0-3,0c0,0,0,0,0,0c-0.8,0-1.7,0-2.5,0c-0.2,0-0.5,0-0.7-0.1C46.7,206.1,46.5,205.8,46.5,205.5z
			 M46.5,209.8c0-0.4,0.3-0.6,0.7-0.6c1.2,0,2.5,0,3.7,0c1,0,2,0,3,0c0,0,0,0,0,0c1.8,0,3.7,0,5.5,0c0.3,0,0.6,0,0.9,0
			c0.7,0,1,0.3,1,0.8c0,0.5-0.3,0.7-1,0.7c-1.2,0-2.4,0-3.6,0c-3,0-6,0-8.9,0c-0.2,0-0.4,0-0.7-0.1
			C46.7,210.5,46.5,210.2,46.5,209.8z M47.5,213.5c2.2,0,4.3,0,6.5,0c2.1,0,4.3,0,6.4,0c0.6,0,0.9,0.2,0.9,0.7
			c0,0.5-0.3,0.8-0.9,0.8c-4.3,0-8.6,0-12.9,0c-0.6,0-0.9-0.3-0.9-0.8C46.5,213.8,46.8,213.6,47.5,213.5z M60.7,223.8
			c-0.2,0-0.3,0-0.5,0c-2.1,0-4.2,0-6.3,0c-2.1,0-4.1,0-6.2,0c-0.2,0-0.4,0-0.6,0c-0.4-0.1-0.7-0.4-0.6-0.8c0-0.4,0.3-0.6,0.7-0.7
			c0.5,0,0.9,0,1.4,0c3.8,0,7.7,0,11.5,0c0.2,0,0.3,0,0.5,0c0.4,0.1,0.7,0.3,0.7,0.7C61.3,223.4,61,223.7,60.7,223.8z M61.3,218.8
			c-0.1,0.5-0.5,0.6-0.9,0.6c-1.4,0-2.7,0-4.1,0c-2.7,0-5.5,0-8.2,0c-0.2,0-0.5,0-0.7,0c-0.5-0.1-0.8-0.4-0.8-0.8
			c0-0.4,0.3-0.7,0.8-0.7c1.4,0,2.9,0,4.3,0c0.8,0,1.5,0,2.3,0c2.2,0,4.3,0,6.5,0C61,217.9,61.4,218.3,61.3,218.8z"/>
	</g>
	<g>
		<path class="st0" d="M131.7,333.3c-2.2,0-4.3,0-6.5,0c-0.8,0-1.5,0-2.3,0c0.8,0,1.5,0,2.3,0C127.4,333.3,129.6,333.3,131.7,333.3z
			"/>
		<path class="st0" d="M125.3,303.5c-14.1,0-25.9,11.2-25.9,25.9c-0.1,14,11.1,25.8,25.8,25.9c14,0.1,25.5-11.2,25.9-24.9
			C151.7,316.1,140.4,303.5,125.3,303.5z M137.2,342.1c0,1.7-1.2,2.9-3,2.9c-6.1,0-12.1,0-18.2,0c-1.5,0-2.8-1.2-2.8-2.8
			c0-2.7,0-5.4,0-8.1c0-1.5,0-3,0-4.5c0,0,0,0,0,0c0-1.8,0-3.6,0-5.4c0-1.6,0-3.3,0-4.9c0-1,0-2.1,0-3.1c0.1-1.3,1.4-2.5,2.6-2.5
			c4.3,0,8.6,0,12.8,0c0.4,0,0.9,0.2,1.3,0.5c2.2,2.1,4.4,4.3,6.6,6.5c0.4,0.4,0.6,0.9,0.6,1.4C137.2,328.9,137.2,335.5,137.2,342.1
			z"/>
		<path class="st0" d="M134.5,322.9c-1.1,0-2.2,0-3.3,0c-2.1,0-3.3-1.3-3.3-3.3c0-1.1,0-2.1,0-3.2c0-0.5-0.2-0.6-0.6-0.6
			c-3.6,0-7.3,0-10.9,0c-0.9,0-1.2,0.3-1.2,1.2c0,4.1,0,8.3,0,12.4c0,0,0,0,0,0c0,4.2,0,8.3,0,12.5c0,0.9,0.3,1.2,1.1,1.2
			c5.9,0,11.8,0,17.7,0c0.8,0,1.1-0.3,1.1-1.1c0-6.1,0-12.3,0-18.4C135.2,323,135,322.9,134.5,322.9z M117.9,320.9
			c0.1-0.3,0.3-0.5,0.5-0.7c0.1-0.1,0.3-0.1,0.5-0.1c1.8,0,3.6,0,5.4,0c0.1,0,0.3,0,0.4,0c0.4,0.1,0.7,0.3,0.6,0.8
			c0,0.4-0.3,0.7-0.7,0.7c-1,0-2,0-3,0c0,0,0,0,0,0c-0.8,0-1.7,0-2.5,0c-0.2,0-0.5,0-0.7-0.1C118.1,321.5,117.8,321.2,117.9,320.9z
			 M117.9,325.2c0-0.4,0.3-0.6,0.7-0.6c1.2,0,2.5,0,3.7,0c1,0,2,0,3,0c0,0,0,0,0,0c1.8,0,3.7,0,5.5,0c0.3,0,0.6,0,0.9,0
			c0.7,0,1,0.3,1,0.8c0,0.5-0.3,0.7-1,0.7c-1.2,0-2.4,0-3.6,0c-3,0-6,0-8.9,0c-0.2,0-0.4,0-0.7-0.1
			C118,325.9,117.8,325.6,117.9,325.2z M118.8,329c2.2,0,4.3,0,6.5,0c2.1,0,4.3,0,6.4,0c0.6,0,0.9,0.2,0.9,0.7
			c0,0.5-0.3,0.8-0.9,0.8c-4.3,0-8.6,0-12.9,0c-0.6,0-0.9-0.3-0.9-0.8C117.9,329.2,118.2,329,118.8,329z M132,339.2
			c-0.2,0-0.3,0-0.5,0c-2.1,0-4.2,0-6.3,0c-2.1,0-4.1,0-6.2,0c-0.2,0-0.4,0-0.6,0c-0.4-0.1-0.7-0.4-0.6-0.8c0-0.4,0.3-0.6,0.7-0.7
			c0.5,0,0.9,0,1.4,0c3.8,0,7.7,0,11.5,0c0.2,0,0.3,0,0.5,0c0.4,0.1,0.7,0.3,0.7,0.7C132.6,338.8,132.4,339.1,132,339.2z
			 M132.6,334.2c-0.1,0.5-0.5,0.6-0.9,0.6c-1.4,0-2.7,0-4.1,0c-2.7,0-5.5,0-8.2,0c-0.2,0-0.5,0-0.7,0c-0.5-0.1-0.8-0.4-0.8-0.8
			c0-0.4,0.3-0.7,0.8-0.7c1.4,0,2.9,0,4.3,0c0.8,0,1.5,0,2.3,0c2.2,0,4.3,0,6.5,0C132.4,333.3,132.7,333.7,132.6,334.2z"/>
	</g>
	<g>
		<path class="st0" d="M253.8,243.8c-2.2,0-4.3,0-6.5,0c-0.8,0-1.5,0-2.3,0c0.8,0,1.5,0,2.3,0C249.5,243.8,251.7,243.8,253.8,243.8z
			"/>
		<path class="st0" d="M247.4,214c-14.1,0-25.9,11.2-25.9,25.9c-0.1,14,11.1,25.8,25.8,25.9c14,0.1,25.5-11.2,25.9-24.9
			C273.8,226.6,262.5,214,247.4,214z M259.3,252.6c0,1.7-1.2,2.9-3,2.9c-6.1,0-12.1,0-18.2,0c-1.5,0-2.8-1.2-2.8-2.8
			c0-2.7,0-5.4,0-8.1c0-1.5,0-3,0-4.5c0,0,0,0,0,0c0-1.8,0-3.6,0-5.4c0-1.6,0-3.3,0-4.9c0-1,0-2.1,0-3.1c0.1-1.3,1.4-2.5,2.6-2.5
			c4.3,0,8.6,0,12.8,0c0.4,0,0.9,0.2,1.3,0.5c2.2,2.1,4.4,4.3,6.6,6.5c0.4,0.4,0.6,0.9,0.6,1.4C259.3,239.4,259.3,246,259.3,252.6z"
			/>
		<path class="st0" d="M256.6,233.4c-1.1,0-2.2,0-3.3,0c-2.1,0-3.3-1.3-3.3-3.3c0-1.1,0-2.1,0-3.2c0-0.5-0.2-0.6-0.6-0.6
			c-3.6,0-7.3,0-10.9,0c-0.9,0-1.2,0.3-1.2,1.2c0,4.1,0,8.3,0,12.4c0,0,0,0,0,0c0,4.2,0,8.3,0,12.5c0,0.9,0.3,1.2,1.1,1.2
			c5.9,0,11.8,0,17.7,0c0.8,0,1.1-0.3,1.1-1.1c0-6.1,0-12.3,0-18.4C257.3,233.5,257.1,233.4,256.6,233.4z M240,231.4
			c0.1-0.3,0.3-0.5,0.5-0.7c0.1-0.1,0.3-0.1,0.5-0.1c1.8,0,3.6,0,5.4,0c0.1,0,0.3,0,0.4,0c0.4,0.1,0.7,0.3,0.6,0.8
			c0,0.4-0.3,0.7-0.7,0.7c-1,0-2,0-3,0c0,0,0,0,0,0c-0.8,0-1.7,0-2.5,0c-0.2,0-0.5,0-0.7-0.1C240.1,232,239.9,231.7,240,231.4z
			 M240,235.7c0-0.4,0.3-0.6,0.7-0.6c1.2,0,2.5,0,3.7,0c1,0,2,0,3,0c0,0,0,0,0,0c1.8,0,3.7,0,5.5,0c0.3,0,0.6,0,0.9,0
			c0.7,0,1,0.3,1,0.8c0,0.5-0.3,0.7-1,0.7c-1.2,0-2.4,0-3.6,0c-3,0-6,0-8.9,0c-0.2,0-0.4,0-0.7-0.1
			C240.1,236.4,239.9,236.1,240,235.7z M240.9,239.4c2.2,0,4.3,0,6.5,0c2.1,0,4.3,0,6.4,0c0.6,0,0.9,0.2,0.9,0.7
			c0,0.5-0.3,0.8-0.9,0.8c-4.3,0-8.6,0-12.9,0c-0.6,0-0.9-0.3-0.9-0.8C240,239.7,240.3,239.4,240.9,239.4z M254.1,249.7
			c-0.2,0-0.3,0-0.5,0c-2.1,0-4.2,0-6.3,0c-2.1,0-4.1,0-6.2,0c-0.2,0-0.4,0-0.6,0c-0.4-0.1-0.7-0.4-0.6-0.8c0-0.4,0.3-0.6,0.7-0.7
			c0.5,0,0.9,0,1.4,0c3.8,0,7.7,0,11.5,0c0.2,0,0.3,0,0.5,0c0.4,0.1,0.7,0.3,0.7,0.7C254.7,249.3,254.5,249.6,254.1,249.7z
			 M254.7,244.7c-0.1,0.5-0.5,0.6-0.9,0.6c-1.4,0-2.7,0-4.1,0c-2.7,0-5.5,0-8.2,0c-0.2,0-0.5,0-0.7,0c-0.5-0.1-0.8-0.4-0.8-0.8
			c0-0.4,0.3-0.7,0.8-0.7c1.4,0,2.9,0,4.3,0c0.8,0,1.5,0,2.3,0c2.2,0,4.3,0,6.5,0C254.4,243.8,254.8,244.2,254.7,244.7z"/>
	</g>
	<g>
		<path class="st0" d="M293.6,140.6c-2.2,0-4.3,0-6.5,0c-0.8,0-1.5,0-2.3,0c0.8,0,1.5,0,2.3,0C289.3,140.6,291.4,140.6,293.6,140.6z
			"/>
		<path class="st0" d="M287.1,110.7c-14.1,0-25.9,11.2-25.9,25.9c-0.1,14,11.1,25.8,25.8,25.9c14,0.1,25.5-11.2,25.9-24.9
			C313.6,123.4,302.2,110.8,287.1,110.7z M299.1,149.3c0,1.7-1.2,2.9-3,2.9c-6.1,0-12.1,0-18.2,0c-1.5,0-2.8-1.2-2.8-2.8
			c0-2.7,0-5.4,0-8.1c0-1.5,0-3,0-4.5c0,0,0,0,0,0c0-1.8,0-3.6,0-5.4c0-1.6,0-3.3,0-4.9c0-1,0-2.1,0-3.1c0.1-1.3,1.4-2.5,2.6-2.5
			c4.3,0,8.6,0,12.8,0c0.4,0,0.9,0.2,1.3,0.5c2.2,2.1,4.4,4.3,6.6,6.5c0.4,0.4,0.6,0.9,0.6,1.4C299.1,136.1,299.1,142.7,299.1,149.3
			z"/>
		<path class="st0" d="M296.4,130.1c-1.1,0-2.2,0-3.3,0c-2.1,0-3.3-1.3-3.3-3.3c0-1.1,0-2.1,0-3.2c0-0.5-0.2-0.6-0.6-0.6
			c-3.6,0-7.3,0-10.9,0c-0.9,0-1.2,0.3-1.2,1.2c0,4.1,0,8.3,0,12.4c0,0,0,0,0,0c0,4.2,0,8.3,0,12.5c0,0.9,0.3,1.2,1.1,1.2
			c5.9,0,11.8,0,17.7,0c0.8,0,1.1-0.3,1.1-1.1c0-6.1,0-12.3,0-18.4C297.1,130.2,296.9,130.1,296.4,130.1z M279.8,128.1
			c0.1-0.3,0.3-0.5,0.5-0.7c0.1-0.1,0.3-0.1,0.5-0.1c1.8,0,3.6,0,5.4,0c0.1,0,0.3,0,0.4,0c0.4,0.1,0.7,0.3,0.6,0.8
			c0,0.4-0.3,0.7-0.7,0.7c-1,0-2,0-3,0c0,0,0,0,0,0c-0.8,0-1.7,0-2.5,0c-0.2,0-0.5,0-0.7-0.1C279.9,128.7,279.7,128.5,279.8,128.1z
			 M279.8,132.4c0-0.4,0.3-0.6,0.7-0.6c1.2,0,2.5,0,3.7,0c1,0,2,0,3,0c0,0,0,0,0,0c1.8,0,3.7,0,5.5,0c0.3,0,0.6,0,0.9,0
			c0.7,0,1,0.3,1,0.8c0,0.5-0.3,0.7-1,0.7c-1.2,0-2.4,0-3.6,0c-3,0-6,0-8.9,0c-0.2,0-0.4,0-0.7-0.1
			C279.9,133.1,279.7,132.8,279.8,132.4z M280.7,136.2c2.2,0,4.3,0,6.5,0c2.1,0,4.3,0,6.4,0c0.6,0,0.9,0.2,0.9,0.7
			c0,0.5-0.3,0.8-0.9,0.8c-4.3,0-8.6,0-12.9,0c-0.6,0-0.9-0.3-0.9-0.8C279.7,136.4,280,136.2,280.7,136.2z M293.9,146.4
			c-0.2,0-0.3,0-0.5,0c-2.1,0-4.2,0-6.3,0c-2.1,0-4.1,0-6.2,0c-0.2,0-0.4,0-0.6,0c-0.4-0.1-0.7-0.4-0.6-0.8c0-0.4,0.3-0.6,0.7-0.7
			c0.5,0,0.9,0,1.4,0c3.8,0,7.7,0,11.5,0c0.2,0,0.3,0,0.5,0c0.4,0.1,0.7,0.3,0.7,0.7C294.5,146.1,294.3,146.3,293.9,146.4z
			 M294.5,141.5c-0.1,0.5-0.5,0.6-0.9,0.6c-1.4,0-2.7,0-4.1,0c-2.7,0-5.5,0-8.2,0c-0.2,0-0.5,0-0.7,0c-0.5-0.1-0.8-0.4-0.8-0.8
			c0-0.4,0.3-0.7,0.8-0.7c1.4,0,2.9,0,4.3,0c0.8,0,1.5,0,2.3,0c2.2,0,4.3,0,6.5,0C294.2,140.6,294.6,141,294.5,141.5z"/>
	</g>
	<g>
		<path class="st0" d="M348.6,29.8c-2.2,0-4.3,0-6.5,0c-0.8,0-1.5,0-2.3,0c0.8,0,1.5,0,2.3,0C344.3,29.8,346.5,29.8,348.6,29.8z"/>
		<path class="st0" d="M342.1,0c-14.1,0-25.9,11.2-25.9,25.9c-0.1,14,11.1,25.8,25.8,25.9c14,0.1,25.5-11.2,25.9-24.9
			C368.6,12.6,357.2,0,342.1,0z M354.1,38.6c0,1.7-1.2,2.9-3,2.9c-6.1,0-12.1,0-18.2,0c-1.5,0-2.8-1.2-2.8-2.8c0-2.7,0-5.4,0-8.1
			c0-1.5,0-3,0-4.5c0,0,0,0,0,0c0-1.8,0-3.6,0-5.4c0-1.6,0-3.3,0-4.9c0-1,0-2.1,0-3.1c0.1-1.3,1.4-2.5,2.6-2.5c4.3,0,8.6,0,12.8,0
			c0.4,0,0.9,0.2,1.3,0.5c2.2,2.1,4.4,4.3,6.6,6.5c0.4,0.4,0.6,0.9,0.6,1.4C354.1,25.4,354.1,32,354.1,38.6z"/>
		<path class="st0" d="M351.4,19.4c-1.1,0-2.2,0-3.3,0c-2.1,0-3.3-1.3-3.3-3.3c0-1.1,0-2.1,0-3.2c0-0.5-0.2-0.6-0.6-0.6
			c-3.6,0-7.3,0-10.9,0c-0.9,0-1.2,0.3-1.2,1.2c0,4.1,0,8.3,0,12.4c0,0,0,0,0,0c0,4.2,0,8.3,0,12.5c0,0.9,0.3,1.2,1.1,1.2
			c5.9,0,11.8,0,17.7,0c0.8,0,1.1-0.3,1.1-1.1c0-6.1,0-12.3,0-18.4C352.1,19.5,351.9,19.4,351.4,19.4z M334.8,17.4
			c0.1-0.3,0.3-0.5,0.5-0.7c0.1-0.1,0.3-0.1,0.5-0.1c1.8,0,3.6,0,5.4,0c0.1,0,0.3,0,0.4,0c0.4,0.1,0.7,0.3,0.6,0.8
			c0,0.4-0.3,0.7-0.7,0.7c-1,0-2,0-3,0c0,0,0,0,0,0c-0.8,0-1.7,0-2.5,0c-0.2,0-0.5,0-0.7-0.1C334.9,18,334.7,17.7,334.8,17.4z
			 M334.8,21.7c0-0.4,0.3-0.6,0.7-0.6c1.2,0,2.5,0,3.7,0c1,0,2,0,3,0c0,0,0,0,0,0c1.8,0,3.7,0,5.5,0c0.3,0,0.6,0,0.9,0
			c0.7,0,1,0.3,1,0.8c0,0.5-0.3,0.7-1,0.7c-1.2,0-2.4,0-3.6,0c-3,0-6,0-8.9,0c-0.2,0-0.4,0-0.7-0.1
			C334.9,22.4,334.7,22.1,334.8,21.7z M335.7,25.5c2.2,0,4.3,0,6.5,0c2.1,0,4.3,0,6.4,0c0.6,0,0.9,0.2,0.9,0.7
			c0,0.5-0.3,0.8-0.9,0.8c-4.3,0-8.6,0-12.9,0c-0.6,0-0.9-0.3-0.9-0.8C334.8,25.7,335.1,25.5,335.7,25.5z M348.9,35.7
			c-0.2,0-0.3,0-0.5,0c-2.1,0-4.2,0-6.3,0c-2.1,0-4.1,0-6.2,0c-0.2,0-0.4,0-0.6,0c-0.4-0.1-0.7-0.4-0.6-0.8c0-0.4,0.3-0.6,0.7-0.7
			c0.5,0,0.9,0,1.4,0c3.8,0,7.7,0,11.5,0c0.2,0,0.3,0,0.5,0c0.4,0.1,0.7,0.3,0.7,0.7C349.5,35.3,349.3,35.6,348.9,35.7z M349.5,30.7
			c-0.1,0.5-0.5,0.6-0.9,0.6c-1.4,0-2.7,0-4.1,0c-2.7,0-5.5,0-8.2,0c-0.2,0-0.5,0-0.7,0c-0.5-0.1-0.8-0.4-0.8-0.8
			c0-0.4,0.3-0.7,0.8-0.7c1.4,0,2.9,0,4.3,0c0.8,0,1.5,0,2.3,0c2.2,0,4.3,0,6.5,0C349.2,29.8,349.6,30.2,349.5,30.7z"/>
	</g>
	<g>
		<path class="st0" d="M328.7,346c-2.2,0-4.3,0-6.5,0c-0.8,0-1.5,0-2.3,0c0.8,0,1.5,0,2.3,0C324.4,346,326.6,346,328.7,346z"/>
		<path class="st0" d="M322.3,316.2c-14.1,0-25.9,11.2-25.9,25.9c-0.1,14,11.1,25.8,25.8,25.9c14,0.1,25.5-11.2,25.9-24.9
			C348.7,328.8,337.3,316.2,322.3,316.2z M334.2,354.8c0,1.7-1.2,2.9-3,2.9c-6.1,0-12.1,0-18.2,0c-1.5,0-2.8-1.2-2.8-2.8
			c0-2.7,0-5.4,0-8.1c0-1.5,0-3,0-4.5c0,0,0,0,0,0c0-1.8,0-3.6,0-5.4c0-1.6,0-3.3,0-4.9c0-1,0-2.1,0-3.1c0.1-1.3,1.4-2.5,2.6-2.5
			c4.3,0,8.6,0,12.8,0c0.4,0,0.9,0.2,1.3,0.5c2.2,2.1,4.4,4.3,6.6,6.5c0.4,0.4,0.6,0.9,0.6,1.4C334.2,341.6,334.2,348.2,334.2,354.8
			z"/>
		<path class="st0" d="M331.5,335.6c-1.1,0-2.2,0-3.3,0c-2.1,0-3.3-1.3-3.3-3.3c0-1.1,0-2.1,0-3.2c0-0.5-0.2-0.6-0.6-0.6
			c-3.6,0-7.3,0-10.9,0c-0.9,0-1.2,0.3-1.2,1.2c0,4.1,0,8.3,0,12.4h0c0,4.2,0,8.3,0,12.5c0,0.9,0.3,1.2,1.1,1.2c5.9,0,11.8,0,17.7,0
			c0.8,0,1.1-0.3,1.1-1.1c0-6.1,0-12.3,0-18.4C332.2,335.7,332,335.6,331.5,335.6z M314.9,333.6c0.1-0.3,0.3-0.5,0.5-0.7
			c0.1-0.1,0.3-0.1,0.5-0.1c1.8,0,3.6,0,5.4,0c0.1,0,0.3,0,0.4,0c0.4,0.1,0.7,0.3,0.6,0.8c0,0.4-0.3,0.7-0.7,0.7c-1,0-2,0-3,0
			c0,0,0,0,0,0c-0.8,0-1.7,0-2.5,0c-0.2,0-0.5,0-0.7-0.1C315,334.2,314.8,333.9,314.9,333.6z M314.9,337.9c0-0.4,0.3-0.6,0.7-0.6
			c1.2,0,2.5,0,3.7,0c1,0,2,0,3,0c0,0,0,0,0,0c1.8,0,3.7,0,5.5,0c0.3,0,0.6,0,0.9,0c0.7,0,1,0.3,1,0.8c0,0.5-0.3,0.7-1,0.7
			c-1.2,0-2.4,0-3.6,0c-3,0-6,0-8.9,0c-0.2,0-0.4,0-0.7-0.1C315,338.6,314.8,338.3,314.9,337.9z M315.8,341.7c2.2,0,4.3,0,6.5,0
			c2.1,0,4.3,0,6.4,0c0.6,0,0.9,0.2,0.9,0.7c0,0.5-0.3,0.8-0.9,0.8c-4.3,0-8.6,0-12.9,0c-0.6,0-0.9-0.3-0.9-0.8
			C314.9,341.9,315.2,341.7,315.8,341.7z M329,351.9c-0.2,0-0.3,0-0.5,0c-2.1,0-4.2,0-6.3,0c-2.1,0-4.1,0-6.2,0c-0.2,0-0.4,0-0.6,0
			c-0.4-0.1-0.7-0.4-0.6-0.8c0-0.4,0.3-0.6,0.7-0.7c0.5,0,0.9,0,1.4,0c3.8,0,7.7,0,11.5,0c0.2,0,0.3,0,0.5,0
			c0.4,0.1,0.7,0.3,0.7,0.7C329.6,351.5,329.4,351.8,329,351.9z M329.6,346.9c-0.1,0.5-0.5,0.6-0.9,0.6c-1.4,0-2.7,0-4.1,0
			c-2.7,0-5.5,0-8.2,0c-0.2,0-0.5,0-0.7,0c-0.5-0.1-0.8-0.4-0.8-0.8c0-0.4,0.3-0.7,0.8-0.7c1.4,0,2.9,0,4.3,0c0.8,0,1.5,0,2.3,0
			c2.2,0,4.3,0,6.5,0C329.3,346,329.7,346.4,329.6,346.9z"/>
	</g>
	<line class="st1" x1="51" y1="51.8" x2="90.8" y2="66.9"/>
	<line class="st1" x1="137.1" y1="66.9" x2="316.2" y2="25.9"/>
	<line class="st1" x1="325" y1="45.3" x2="301.4" y2="118.3"/>
	<line class="st1" x1="125.3" y1="99.1" x2="151.1" y2="137.5"/>
	<line class="st1" x1="25.8" y1="71.2" x2="53.9" y2="188.1"/>
	<line class="st1" x1="63.8" y1="237.9" x2="107.8" y2="310.3"/>
	<line class="st1" x1="149" y1="319" x2="225.3" y2="253.5"/>
	<line class="st1" x1="146.2" y1="333.3" x2="296.3" y2="342.1"/>
	<line class="st1" x1="342.1" y1="51.8" x2="332.2" y2="319"/>
	<line class="st1" x1="313" y1="319" x2="269.4" y2="253.5"/>
	<line class="st1" x1="257.3" y1="216" x2="287" y2="162.5"/>
	<line class="st1" x1="125.3" y1="303.5" x2="149" y2="187"/>
	<line class="st1" x1="179.6" y1="176.2" x2="228.6" y2="222"/>
	<line class="st1" x1="261.2" y1="136.6" x2="179.6" y2="162.5"/>
	<line class="st1" x1="78" y1="204.5" x2="132" y2="166.5"/>
	<line class="st1" x1="135.2" y1="75.2" x2="269.4" y2="117.7"/>
	<line class="st1" x1="247.4" y1="214" x2="137.1" y2="84.7"/>
</g>
</svg>
